<?xml version="1.0" encoding="utf-8"?>
<!-- Generator: Adobe Illustrator 21.0.1, SVG Export Plug-In . SVG Version: 6.00 Build 0)  -->
<svg version="1.1" id="Capa_1" xmlns="http://www.w3.org/2000/svg" xmlns:xlink="http://www.w3.org/1999/xlink" x="0px" y="0px"
	 width="128px" height="44.6px" viewBox="0 0 128 44.6" style="enable-background:new 0 0 128 44.6;" xml:space="preserve">
<style type="text/css">
	.st0{fill:#222220;}
	.st1{fill:#3990B0;}
	.st2{fill:#D57C1B;}
</style>
<g>
	<g>
		<g>
			<path class="st0" d="M26.1,32.5c0.1,0,0.3,0,0.4,0c0.2,0,0.3,0,0.4,0c0.1,0,0.2,0,0.4,0c0.1,0,0.3,0,0.4,0l1.7,5.1
				c-0.2,0-0.5,0.1-0.7,0.1c-0.1,0-0.2,0-0.3,0s-0.2,0-0.3,0l-0.2-0.9h-1.7l-0.2,0.9c-0.1,0-0.2,0-0.4,0c-0.1,0-0.3,0-0.4,0
				c-0.2,0-0.4,0-0.7-0.1L26.1,32.5z M27.3,35.7l-0.6-2.2l-0.6,2.2H27.3z"/>
			<path class="st0" d="M30.7,35.4c-0.2-0.1-0.4-0.1-0.6-0.2c-0.2-0.1-0.3-0.2-0.4-0.3c-0.1-0.1-0.2-0.2-0.2-0.4
				c-0.1-0.2-0.1-0.3-0.1-0.6c0-0.2,0-0.4,0.1-0.6c0.1-0.2,0.2-0.4,0.4-0.5c0.2-0.1,0.4-0.3,0.6-0.3c0.2-0.1,0.5-0.1,0.8-0.1
				c0.2,0,0.5,0,0.8,0.1c0.3,0,0.5,0.1,0.8,0.2c0,0.2,0,0.3-0.1,0.5c-0.1,0.2-0.1,0.3-0.2,0.5c-0.1,0-0.2-0.1-0.3-0.1
				c-0.1,0-0.2-0.1-0.3-0.1c-0.1,0-0.2,0-0.3-0.1c-0.1,0-0.2,0-0.3,0c-0.2,0-0.4,0-0.5,0.1c-0.1,0.1-0.2,0.2-0.2,0.3
				c0,0.1,0,0.3,0.1,0.3c0.1,0.1,0.2,0.1,0.4,0.2l0.6,0.2c0.4,0.1,0.7,0.3,0.9,0.5c0.2,0.2,0.3,0.5,0.3,0.9c0,0.2,0,0.5-0.1,0.7
				c-0.1,0.2-0.2,0.4-0.4,0.5c-0.2,0.2-0.4,0.3-0.7,0.4c-0.3,0.1-0.6,0.1-0.9,0.1c-0.3,0-0.6,0-0.8-0.1c-0.2,0-0.5-0.1-0.7-0.2
				c0-0.2,0-0.3,0.1-0.5c0.1-0.2,0.1-0.3,0.2-0.5c0.2,0.1,0.4,0.2,0.6,0.2c0.2,0,0.4,0.1,0.6,0.1c0.3,0,0.5,0,0.7-0.1
				c0.2-0.1,0.2-0.2,0.2-0.4c0-0.2,0-0.3-0.1-0.4c-0.1-0.1-0.2-0.2-0.5-0.2L30.7,35.4z"/>
			<path class="st0" d="M34.6,35.4c-0.2-0.1-0.4-0.1-0.6-0.2c-0.2-0.1-0.3-0.2-0.4-0.3c-0.1-0.1-0.2-0.2-0.2-0.4
				c-0.1-0.2-0.1-0.3-0.1-0.6c0-0.2,0-0.4,0.1-0.6c0.1-0.2,0.2-0.4,0.4-0.5c0.2-0.1,0.4-0.3,0.6-0.3c0.2-0.1,0.5-0.1,0.8-0.1
				c0.2,0,0.5,0,0.8,0.1c0.3,0,0.5,0.1,0.8,0.2c0,0.2,0,0.3-0.1,0.5c-0.1,0.2-0.1,0.3-0.2,0.5c-0.1,0-0.2-0.1-0.3-0.1
				c-0.1,0-0.2-0.1-0.3-0.1s-0.2,0-0.3-0.1c-0.1,0-0.2,0-0.3,0c-0.2,0-0.4,0-0.5,0.1c-0.1,0.1-0.2,0.2-0.2,0.3c0,0.1,0,0.3,0.1,0.3
				c0.1,0.1,0.2,0.1,0.4,0.2l0.6,0.2c0.4,0.1,0.7,0.3,0.9,0.5c0.2,0.2,0.3,0.5,0.3,0.9c0,0.2,0,0.5-0.1,0.7
				c-0.1,0.2-0.2,0.4-0.4,0.5c-0.2,0.2-0.4,0.3-0.7,0.4c-0.3,0.1-0.6,0.1-0.9,0.1c-0.3,0-0.6,0-0.8-0.1c-0.2,0-0.5-0.1-0.7-0.2
				c0-0.2,0-0.3,0.1-0.5c0.1-0.2,0.1-0.3,0.2-0.5c0.2,0.1,0.4,0.2,0.6,0.2c0.2,0,0.4,0.1,0.6,0.1c0.3,0,0.5,0,0.7-0.1
				c0.2-0.1,0.2-0.2,0.2-0.4c0-0.2,0-0.3-0.1-0.4c-0.1-0.1-0.2-0.2-0.5-0.2L34.6,35.4z"/>
			<path class="st0" d="M37.5,32.5c0.2,0,0.4-0.1,0.6-0.1c0.2,0,0.5,0,0.7,0.1v5.1c-0.2,0-0.4,0.1-0.7,0.1c-0.2,0-0.4,0-0.6-0.1
				V32.5z"/>
			<path class="st0" d="M40.8,35.4c-0.2-0.1-0.4-0.1-0.6-0.2c-0.2-0.1-0.3-0.2-0.4-0.3c-0.1-0.1-0.2-0.2-0.2-0.4
				c-0.1-0.2-0.1-0.3-0.1-0.6c0-0.2,0-0.4,0.1-0.6c0.1-0.2,0.2-0.4,0.4-0.5c0.2-0.1,0.4-0.3,0.6-0.3c0.2-0.1,0.5-0.1,0.8-0.1
				c0.2,0,0.5,0,0.8,0.1c0.3,0,0.5,0.1,0.8,0.2c0,0.2,0,0.3-0.1,0.5c-0.1,0.2-0.1,0.3-0.2,0.5c-0.1,0-0.2-0.1-0.3-0.1
				c-0.1,0-0.2-0.1-0.3-0.1c-0.1,0-0.2,0-0.3-0.1c-0.1,0-0.2,0-0.3,0c-0.2,0-0.4,0-0.5,0.1c-0.1,0.1-0.2,0.2-0.2,0.3
				c0,0.1,0,0.3,0.1,0.3c0.1,0.1,0.2,0.1,0.4,0.2l0.6,0.2c0.4,0.1,0.7,0.3,0.9,0.5c0.2,0.2,0.3,0.5,0.3,0.9c0,0.2,0,0.5-0.1,0.7
				c-0.1,0.2-0.2,0.4-0.4,0.5c-0.2,0.2-0.4,0.3-0.7,0.4c-0.3,0.1-0.6,0.1-0.9,0.1c-0.3,0-0.6,0-0.8-0.1c-0.2,0-0.5-0.1-0.7-0.2
				c0-0.2,0-0.3,0.1-0.5c0.1-0.2,0.1-0.3,0.2-0.5c0.2,0.1,0.4,0.2,0.6,0.2c0.2,0,0.4,0.1,0.6,0.1c0.3,0,0.5,0,0.7-0.1
				c0.2-0.1,0.2-0.2,0.2-0.4c0-0.2,0-0.3-0.1-0.4c-0.1-0.1-0.2-0.2-0.5-0.2L40.8,35.4z"/>
			<path class="st0" d="M44.7,33.6h-1.5c0-0.2-0.1-0.4-0.1-0.5c0-0.1,0-0.2,0-0.3c0-0.1,0-0.2,0-0.3h4.2c0,0.1,0,0.2,0,0.3
				c0,0.1,0,0.2,0,0.3c0,0.2,0,0.4-0.1,0.5H46v4h-1.3V33.6z"/>
			<path class="st0" d="M47.9,32.5c0.2,0,0.4-0.1,0.6-0.1c0.2,0,0.5,0,0.7,0.1v5.1c-0.2,0-0.4,0.1-0.7,0.1c-0.2,0-0.4,0-0.6-0.1
				V32.5z"/>
			<path class="st0" d="M50.1,32.5c0.2,0,0.4-0.1,0.6-0.1c0.2,0,0.4,0,0.6,0.1l2.1,3.1v-3.1c0.2,0,0.4-0.1,0.6-0.1
				c0.2,0,0.4,0,0.5,0.1v5.1c-0.2,0-0.4,0.1-0.5,0.1c-0.2,0-0.4,0-0.6-0.1l-2.1-3.1v3.1c-0.2,0-0.4,0.1-0.6,0.1
				c-0.2,0-0.4,0-0.6-0.1V32.5z"/>
			<path class="st0" d="M58.2,35c0.2,0,0.4-0.1,0.6-0.1c0.2,0,0.4,0,0.6,0.1v2.4c-0.3,0.1-0.6,0.2-0.9,0.2c-0.3,0-0.6,0.1-0.8,0.1
				c-0.4,0-0.8-0.1-1.1-0.2c-0.3-0.1-0.6-0.3-0.8-0.5c-0.2-0.2-0.4-0.5-0.5-0.8c-0.1-0.3-0.2-0.8-0.2-1.2c0-0.3,0.1-0.7,0.2-1
				c0.1-0.3,0.3-0.6,0.5-0.8c0.2-0.2,0.5-0.4,0.8-0.6c0.3-0.1,0.7-0.2,1.1-0.2c0.2,0,0.4,0,0.7,0.1c0.2,0,0.5,0.1,0.8,0.2
				c0,0.1,0,0.3-0.1,0.4c0,0.2-0.1,0.3-0.2,0.6c-0.2-0.1-0.4-0.1-0.5-0.2c-0.1,0-0.3-0.1-0.5-0.1c-0.3,0-0.5,0-0.6,0.1
				c-0.2,0.1-0.3,0.2-0.4,0.4c-0.1,0.1-0.2,0.3-0.2,0.5c0,0.2-0.1,0.4-0.1,0.5c0,0.5,0.1,0.9,0.3,1.2c0.2,0.3,0.5,0.4,1,0.4
				c0.2,0,0.3,0,0.4,0V35z"/>
			<path class="st0" d="M63,35.4c-0.2-0.1-0.4-0.1-0.6-0.2c-0.2-0.1-0.3-0.2-0.4-0.3c-0.1-0.1-0.2-0.2-0.2-0.4
				c-0.1-0.2-0.1-0.3-0.1-0.6c0-0.2,0-0.4,0.1-0.6c0.1-0.2,0.2-0.4,0.4-0.5c0.2-0.1,0.4-0.3,0.6-0.3c0.2-0.1,0.5-0.1,0.8-0.1
				c0.2,0,0.5,0,0.8,0.1c0.3,0,0.5,0.1,0.8,0.2c0,0.2,0,0.3-0.1,0.5c-0.1,0.2-0.1,0.3-0.2,0.5c-0.1,0-0.2-0.1-0.3-0.1
				c-0.1,0-0.2-0.1-0.3-0.1c-0.1,0-0.2,0-0.3-0.1c-0.1,0-0.2,0-0.3,0c-0.2,0-0.4,0-0.5,0.1C63,33.6,63,33.7,63,33.8
				c0,0.1,0,0.3,0.1,0.3c0.1,0.1,0.2,0.1,0.4,0.2l0.6,0.2c0.4,0.1,0.7,0.3,0.9,0.5c0.2,0.2,0.3,0.5,0.3,0.9c0,0.2,0,0.5-0.1,0.7
				c-0.1,0.2-0.2,0.4-0.4,0.5c-0.2,0.2-0.4,0.3-0.7,0.4c-0.3,0.1-0.6,0.1-0.9,0.1c-0.3,0-0.6,0-0.8-0.1c-0.2,0-0.5-0.1-0.7-0.2
				c0-0.2,0-0.3,0.1-0.5c0.1-0.2,0.1-0.3,0.2-0.5c0.2,0.1,0.4,0.2,0.6,0.2c0.2,0,0.4,0.1,0.6,0.1c0.3,0,0.5,0,0.7-0.1
				c0.2-0.1,0.2-0.2,0.2-0.4c0-0.2,0-0.3-0.1-0.4c-0.1-0.1-0.2-0.2-0.5-0.2L63,35.4z"/>
			<path class="st0" d="M65.8,32.5c0.1,0,0.2,0,0.3,0c0.1,0,0.2,0,0.3,0c0.1,0,0.2,0,0.3,0c0.1,0,0.2,0,0.3,0v1.9c0,0.4,0,0.7,0,1
				c0,0.3,0.1,0.5,0.1,0.7c0.1,0.2,0.1,0.3,0.3,0.4c0.1,0.1,0.3,0.1,0.5,0.1c0.2,0,0.4,0,0.5-0.1c0.1-0.1,0.2-0.2,0.3-0.4
				c0.1-0.2,0.1-0.4,0.1-0.7c0-0.3,0-0.6,0-1v-1.9c0.1,0,0.3,0,0.4,0c0.1,0,0.2,0,0.3,0c0.1,0,0.2,0,0.3,0c0.1,0,0.2,0,0.3,0v2.2
				c0,0.5,0,0.9-0.1,1.2c-0.1,0.4-0.2,0.7-0.3,1c-0.2,0.3-0.4,0.5-0.7,0.6c-0.3,0.1-0.7,0.2-1.1,0.2c-0.5,0-0.8-0.1-1.1-0.2
				c-0.3-0.1-0.5-0.4-0.7-0.6s-0.3-0.6-0.3-1c-0.1-0.4-0.1-0.8-0.1-1.2V32.5z"/>
			<path class="st0" d="M71.1,32.5c0.3,0,0.5-0.1,0.8-0.1c0.3,0,0.5,0,0.8,0c0.7,0,1.3,0.2,1.7,0.5c0.4,0.3,0.6,0.7,0.6,1.2
				c0,0.2,0,0.3-0.1,0.5c0,0.1-0.1,0.3-0.2,0.4c-0.1,0.1-0.1,0.2-0.2,0.3s-0.2,0.2-0.3,0.3l-0.1,0.1l1.2,2c-0.1,0-0.3,0-0.4,0
				c-0.1,0-0.3,0-0.4,0c-0.2,0-0.5,0-0.7-0.1l-1.2-2.3l0.3-0.1c0.2-0.1,0.4-0.2,0.5-0.4c0.1-0.2,0.2-0.4,0.2-0.6
				c0-0.2-0.1-0.4-0.2-0.5c-0.2-0.1-0.4-0.2-0.7-0.2c-0.1,0-0.1,0-0.2,0c-0.1,0-0.1,0-0.2,0v4.1c-0.1,0-0.2,0-0.3,0
				c-0.1,0-0.2,0-0.3,0c-0.1,0-0.2,0-0.3,0c-0.1,0-0.2,0-0.3,0V32.5z"/>
			<path class="st0" d="M78.5,35c0.2,0,0.4-0.1,0.6-0.1c0.2,0,0.4,0,0.6,0.1v2.4c-0.3,0.1-0.6,0.2-0.9,0.2c-0.3,0-0.6,0.1-0.8,0.1
				c-0.4,0-0.8-0.1-1.1-0.2c-0.3-0.1-0.6-0.3-0.8-0.5c-0.2-0.2-0.4-0.5-0.5-0.8c-0.1-0.3-0.2-0.8-0.2-1.2c0-0.3,0.1-0.7,0.2-1
				c0.1-0.3,0.3-0.6,0.5-0.8c0.2-0.2,0.5-0.4,0.8-0.6c0.3-0.1,0.7-0.2,1.1-0.2c0.2,0,0.4,0,0.7,0.1c0.2,0,0.5,0.1,0.8,0.2
				c0,0.1,0,0.3-0.1,0.4c0,0.2-0.1,0.3-0.2,0.6c-0.2-0.1-0.4-0.1-0.5-0.2c-0.1,0-0.3-0.1-0.5-0.1c-0.3,0-0.5,0-0.6,0.1
				c-0.2,0.1-0.3,0.2-0.4,0.4c-0.1,0.1-0.2,0.3-0.2,0.5c0,0.2-0.1,0.4-0.1,0.5c0,0.5,0.1,0.9,0.3,1.2c0.2,0.3,0.5,0.4,1,0.4
				c0.2,0,0.3,0,0.4,0V35z"/>
			<path class="st0" d="M80.5,32.5h3.4c0,0.1,0,0.2,0,0.3c0,0.1,0,0.2,0,0.3c0,0.1,0,0.2,0,0.3c0,0.1,0,0.2,0,0.3h-2.1v0.9h1.6
				c0,0.1,0,0.2,0,0.3c0,0.1,0,0.2,0,0.3c0,0.1,0,0.2,0,0.3c0,0.1,0,0.2,0,0.3h-1.6v1H84c0,0.1,0,0.2,0,0.3s0,0.2,0,0.3
				c0,0.2,0,0.4-0.1,0.5h-3.4V32.5z"/>
			<path class="st0" d="M84.6,32.5c0.3,0,0.5-0.1,0.8-0.1c0.3,0,0.5,0,0.8,0c0.7,0,1.3,0.2,1.7,0.5c0.4,0.3,0.6,0.7,0.6,1.2
				c0,0.2,0,0.3-0.1,0.5c0,0.1-0.1,0.3-0.2,0.4c-0.1,0.1-0.1,0.2-0.2,0.3s-0.2,0.2-0.3,0.3l-0.1,0.1l1.2,2c-0.1,0-0.3,0-0.4,0
				c-0.1,0-0.3,0-0.4,0c-0.2,0-0.5,0-0.7-0.1l-1.2-2.3l0.3-0.1c0.2-0.1,0.4-0.2,0.5-0.4c0.1-0.2,0.2-0.4,0.2-0.6
				c0-0.2-0.1-0.4-0.2-0.5c-0.2-0.1-0.4-0.2-0.7-0.2c-0.1,0-0.1,0-0.2,0c-0.1,0-0.1,0-0.2,0v4.1c-0.1,0-0.2,0-0.3,0
				c-0.1,0-0.2,0-0.3,0c-0.1,0-0.2,0-0.3,0c-0.1,0-0.2,0-0.3,0V32.5z"/>
			<path class="st0" d="M90.3,35.9l-1.8-3.4c0.2,0,0.5-0.1,0.7-0.1c0.2,0,0.5,0,0.7,0.1l1,2.3l1-2.3c0.2,0,0.4-0.1,0.7-0.1
				c0.2,0,0.5,0,0.7,0.1l-1.8,3.4v1.7c-0.1,0-0.2,0-0.3,0c-0.1,0-0.2,0-0.3,0c-0.1,0-0.2,0-0.3,0c-0.1,0-0.2,0-0.3,0V35.9z"/>
		</g>
		<g>
			<path class="st1" d="M101.3,6.9c-1.1-1-2.4-1.8-3.8-2.3c-1.5-0.5-3.1-0.8-4.8-0.8c-1.7,0-3.2,0.3-4.7,1c-1.5,0.6-2.7,1.5-3.8,2.6
				c-1.1,1.1-1.9,2.4-2.5,3.9c-0.6,1.5-0.9,3.1-0.9,4.8c0,1.7,0.3,3.3,0.9,4.8c0.6,1.5,1.5,2.8,2.5,3.9c1.1,1.1,2.4,2,3.8,2.6
				c1.5,0.6,3.1,1,4.8,1c2,0,3.9-0.5,5.7-1.5l0.3-0.1v-5.5l-0.8,0.6c-1.5,1.1-3.2,1.6-5.2,1.6c-1.1,0-2-0.2-2.8-0.5
				c-0.8-0.4-1.5-0.9-2.1-1.5c-0.6-0.6-1-1.4-1.4-2.3c-0.3-0.9-0.5-1.9-0.5-3c0-1.1,0.2-2.1,0.5-3c0.3-0.9,0.8-1.7,1.4-2.3
				c0.6-0.6,1.3-1.1,2.1-1.5c0.8-0.4,1.8-0.5,2.8-0.5c4.6,0,6.8,2.4,6.8,7.3v12.3h5.2V16.1c0-2-0.3-3.8-0.9-5.3
				C103.2,9.2,102.3,7.9,101.3,6.9z"/>
			<path class="st1" d="M123,6.7c-1.7-1.6-4.2-2.4-7.3-2.4h-8.3v4.9h8c3.4,0,5,1.6,5,5.2v8.5h-5.7c-1.8,0-4.1-0.3-4.1-2.6
				c0-0.9,0.3-1.6,1-2.1c0.7-0.5,1.8-0.8,3.1-0.8c1.6,0,3,0.4,4.1,1.3l0.8,0.6v-5.6l-0.4-0.1c-1.6-0.5-3.2-0.8-4.7-0.8
				c-2.6,0-4.8,0.6-6.5,1.9c-1.8,1.3-2.7,3.2-2.7,5.6c0,2.4,0.9,4.3,2.5,5.6c1.6,1.3,3.9,1.9,6.6,1.9h11V13.5
				C125.6,10.6,124.7,8.3,123,6.7z"/>
			<path class="st1" d="M16.7,13.8c-0.7,0.6-2.1,0.9-4.1,0.9H9.9v4.6h2.4c7.2,0,10.8-2.8,10.8-8.3c0-4.5-2.8-6.9-8.5-7.1l0,0
				c-3.8-0.1-6.8,1-9,3.4c-2.2,2.4-3.3,5.5-3.3,9.3c0,3.4,1.1,6.3,3.3,8.5c2.2,2.2,5.2,3.3,8.9,3.3c3,0,5.7-0.9,8-2.7l0.4-0.4
				l-3.5-3.5L19.1,22c-1.2,0.9-2.7,1.4-4.5,1.4c-2.1,0-3.7-0.7-5-2c-1.3-1.3-1.9-3.1-1.9-5.3c0-2.1,0.6-3.9,1.8-5.3
				c1.2-1.5,2.8-2.2,4.8-2.2c1,0,1.9,0.2,2.5,0.6c0.6,0.4,0.9,1,0.9,1.8C17.7,12.3,17.4,13.3,16.7,13.8z"/>
			<path class="st1" d="M38.8,22.9H34c-0.9,0-1.6-0.1-2.2-0.4c-0.6-0.3-1-0.6-1.3-0.9s-0.5-0.8-0.7-1.3c-0.2-0.6-0.3-1-0.3-1.4
				c0-0.4,0-0.8,0-1.4V4.3h-5.1v13.2c0,2.1,0.2,3.8,0.6,5.1c0.4,1.4,1.3,2.6,2.8,3.5c1.6,1.1,4.1,1.6,7.8,1.6H44V4.3h-5.1V22.9z"/>
			<path class="st1" d="M60.5,4.3h-4.6c-1.2,0-2.2,0-2.9,0.1c-0.7,0.1-1.6,0.3-2.6,0.6c-1,0.4-1.9,0.9-2.6,1.7
				c-1.5,1.5-2.2,4-2.2,7.8v13.3h5.1V14.5c0-2.7,0.4-3.7,0.8-4.2c0.3-0.3,0.6-0.6,1-0.8c0.4-0.2,0.8-0.3,1.1-0.3c0.3,0,0.8,0,1.4,0
				h5.5V4.3z"/>
			<path class="st1" d="M73.7,13.8c-0.7,0.6-2.1,0.9-4.1,0.9h-2.8v4.6h2.4c7.2,0,10.8-2.8,10.8-8.3c0-4.5-2.8-6.9-8.5-7.1l0,0
				c-3.8-0.1-6.8,1-9,3.4c-2.2,2.4-3.3,5.5-3.3,9.3c0,3.4,1.1,6.3,3.3,8.5c2.2,2.2,5.2,3.3,8.9,3.3c3,0,5.7-0.9,8-2.7l0.4-0.4
				l-3.5-3.5L76.1,22c-1.2,0.9-2.7,1.4-4.5,1.4c-2.1,0-3.7-0.7-5-2c-1.3-1.3-1.9-3.1-1.9-5.3c0-2.1,0.6-3.9,1.8-5.3
				c1.2-1.5,2.8-2.2,4.8-2.2c1,0,1.9,0.2,2.5,0.6c0.6,0.4,0.9,1,0.9,1.8C74.7,12.3,74.4,13.3,73.7,13.8z"/>
			<polygon class="st1" points="107.8,32.4 104.6,32.4 104.6,29.1 99.4,29.1 99.4,32.4 96.2,32.4 96.2,37.6 99.4,37.6 99.4,40.8 
				104.6,40.8 104.6,37.6 107.8,37.6 			"/>
		</g>
	</g>
	<g>
		<path class="st2" d="M111.8,32.9c-0.1-0.3-0.1-0.6-0.1-0.9c0-0.3,0-0.6,0.1-0.9h5.2l0.2,0.3l-1.7,3c0.6,0.1,1,0.4,1.4,0.8
			c0.3,0.4,0.5,0.9,0.5,1.6c0,0.5-0.1,1-0.3,1.3c-0.2,0.4-0.4,0.7-0.8,1c-0.3,0.3-0.7,0.5-1.1,0.6c-0.4,0.1-0.9,0.2-1.4,0.2
			c-0.2,0-0.4,0-0.6,0c-0.2,0-0.4,0-0.6-0.1s-0.4-0.1-0.6-0.1c-0.2-0.1-0.4-0.1-0.6-0.2c0-0.3,0.1-0.6,0.2-0.9
			c0.1-0.3,0.2-0.6,0.4-0.8c0.3,0.1,0.6,0.2,0.9,0.3c0.3,0.1,0.6,0.1,0.9,0.1c0.5,0,0.9-0.1,1.1-0.3c0.3-0.2,0.4-0.5,0.4-0.9
			c0-0.2,0-0.3-0.1-0.5c-0.1-0.1-0.2-0.2-0.3-0.3c-0.1-0.1-0.3-0.2-0.4-0.2c-0.2,0-0.3-0.1-0.5-0.1c-0.1,0-0.3,0-0.4,0
			c-0.1,0-0.3,0-0.5,0.1l-0.3-0.4l1.5-2.6H111.8z"/>
		<path class="st2" d="M121,30.6c1.5,0,2.7,0.4,3.5,1.2c0.8,0.8,1.2,1.9,1.2,3.4c0,1.5-0.4,2.7-1.2,3.4c-0.8,0.7-2,1.1-3.6,1.1
			c-0.4,0-0.8,0-1.2-0.1c-0.4,0-0.8-0.1-1.1-0.1v-8.7c0.1,0,0.3,0,0.5-0.1c0.2,0,0.4,0,0.6-0.1c0.2,0,0.4,0,0.7,0
			C120.5,30.6,120.7,30.6,121,30.6z M120.7,37.8c0.1,0,0.1,0,0.2,0c0.1,0,0.2,0,0.2,0c0.3,0,0.6,0,0.9-0.1c0.3-0.1,0.5-0.2,0.7-0.4
			c0.2-0.2,0.4-0.5,0.5-0.8c0.1-0.3,0.2-0.8,0.2-1.3c0-0.5-0.1-0.9-0.2-1.3s-0.3-0.6-0.5-0.8c-0.2-0.2-0.4-0.3-0.7-0.4
			c-0.3-0.1-0.5-0.1-0.8-0.1c-0.2,0-0.3,0-0.4,0c-0.1,0-0.1,0-0.1,0V37.8z"/>
	</g>
</g>
</svg>
